<?xml version="1.0" standalone="no"?>
<!DOCTYPE svg PUBLIC "-//W3C//DTD SVG 20010904//EN"
 "http://www.w3.org/TR/2001/REC-SVG-20010904/DTD/svg10.dtd">
<svg version="1.0" xmlns="http://www.w3.org/2000/svg"
 width="480.000000pt" height="480.000000pt" viewBox="0 0 480.000000 480.000000"
 preserveAspectRatio="xMidYMid meet">

<g transform="translate(0.000000,480.000000) scale(0.100000,-0.100000)"
fill="#000000" stroke="none">
<path d="M1497 3048 c-3 -18 -7 -85 -7 -148 -1 -63 -2 -131 -3 -150 0 -19 1
-81 3 -138 2 -67 0 -106 -7 -110 -8 -5 -7 -34 3 -101 8 -52 16 -96 18 -99 8
-7 27 9 21 18 -3 4 -7 59 -10 121 -3 63 -8 121 -11 131 -2 9 0 19 6 23 8 5 8
11 1 19 -8 9 -6 22 5 45 11 23 13 35 5 45 -7 9 -7 16 2 26 10 10 9 12 -5 7
-20 -7 -34 8 -17 19 8 5 9 3 4 -6 -5 -8 -4 -11 2 -7 6 4 9 21 7 39 -1 18 -4
93 -5 166 -2 72 -4 132 -5 132 -1 0 -4 -15 -7 -32z"/>
<path d="M1855 3016 c-27 -7 -74 -23 -103 -36 -41 -18 -52 -27 -50 -43 2 -16
-7 -23 -52 -38 -30 -10 -65 -18 -77 -18 -41 -2 -53 -12 -53 -46 0 -18 6 -38
14 -44 10 -9 15 -45 18 -134 4 -109 7 -128 32 -180 30 -61 93 -124 161 -161
35 -18 56 -21 160 -21 104 0 126 3 166 23 130 64 228 249 213 401 -7 60 -6 61
22 72 46 18 164 22 209 7 l40 -13 1 -72 c4 -185 76 -320 209 -391 47 -25 59
-27 175 -27 l125 0 56 36 c121 79 169 176 169 344 0 77 3 97 19 116 11 13 23
20 27 16 5 -4 4 -11 -1 -15 -6 -4 -11 -18 -13 -32 -1 -19 0 -21 7 -10 6 8 13
11 16 8 4 -4 -2 -12 -13 -19 -16 -10 -18 -17 -11 -30 5 -10 5 -27 0 -41 -4
-13 -5 -32 0 -43 4 -11 8 -15 9 -10 1 6 5 1 9 -10 12 -30 17 84 11 237 -3 73
-19 117 -21 58 -1 -19 0 -42 1 -50 1 -9 -5 -7 -17 7 -11 14 -38 25 -73 32 -84
15 -109 27 -103 49 3 15 -7 24 -54 44 -110 49 -206 59 -308 33 -89 -23 -115
-35 -115 -56 0 -29 15 -31 92 -9 88 24 186 26 274 4 36 -9 63 -18 61 -20 -2
-2 -40 1 -85 6 -149 19 -297 -15 -381 -86 l-42 -37 -51 17 c-63 20 -149 21
-216 1 l-51 -15 -53 40 c-78 59 -159 82 -293 83 -60 0 -121 -3 -135 -8 -14 -4
-22 -4 -19 -1 15 16 118 36 184 36 39 0 101 -9 139 -19 74 -21 96 -19 96 8 0
21 -32 37 -114 56 -73 18 -143 18 -211 1z m148 -93 c-7 -2 -19 -2 -25 0 -7 3
-2 5 12 5 14 0 19 -2 13 -5z m864 1 c-3 -3 -12 -4 -19 -1 -8 3 -5 6 6 6 11 1
17 -2 13 -5z m-782 -48 c28 -10 57 -24 65 -32 19 -19 0 -18 -28 2 -12 8 -22
12 -22 7 0 -4 -44 -8 -98 -8 -90 0 -104 -3 -163 -32 -54 -27 -144 -103 -144
-123 0 -3 -3 -4 -7 -3 -3 1 -21 -11 -38 -27 -25 -23 -31 -36 -28 -62 2 -18 7
-33 13 -33 5 0 22 20 39 44 24 36 30 41 38 27 7 -13 16 -3 41 46 42 81 98 118
189 125 107 9 203 -48 256 -152 l21 -40 -1 43 c-1 23 2 45 7 50 4 4 5 -27 1
-68 -11 -124 -69 -221 -165 -278 -42 -25 -54 -27 -156 -27 -102 0 -113 2 -156
27 -55 33 -88 69 -120 135 -20 40 -24 63 -24 139 1 147 52 227 161 253 65 15
262 7 319 -13z m1041 -7 c64 -32 104 -106 111 -206 5 -68 5 -68 -12 -38 -20
36 -45 65 -57 65 -14 0 -68 42 -63 50 7 11 -88 69 -145 89 -61 21 -202 33
-192 16 3 -5 -2 -4 -11 4 -15 12 -17 12 -11 -4 6 -14 4 -16 -12 -8 -10 6 -26
8 -34 6 -13 -4 -13 -3 0 6 8 5 18 7 22 5 4 -3 8 -1 8 4 0 8 28 18 105 36 11 3
70 4 131 2 96 -2 119 -6 160 -27z m-900 -118 c5 -25 4 -32 -5 -27 -6 4 -9 11
-6 16 3 5 0 12 -6 15 -5 4 -8 13 -6 19 3 7 -4 18 -14 24 -10 7 -19 17 -19 22
0 24 50 -38 56 -69z m780 23 c38 -23 56 -43 80 -92 30 -61 44 -69 44 -28 0 18
4 16 30 -14 17 -19 33 -45 36 -57 7 -25 19 -30 28 -10 4 6 4 -6 1 -27 -9 -82
-99 -182 -183 -206 -55 -15 -172 -12 -225 6 -99 34 -191 155 -201 265 -2 24
-1 33 1 20 4 -22 7 -20 24 20 24 54 71 104 121 130 52 27 60 24 15 -6 -47 -33
-67 -72 -67 -133 0 -59 28 -106 80 -133 36 -20 95 -25 118 -11 8 6 2 9 -18 9
-44 0 -61 20 -24 29 16 4 44 18 62 31 40 30 50 24 34 -20 l-12 -32 21 25 c43
53 51 117 23 176 -21 45 -63 74 -122 84 -45 9 -45 9 19 7 54 -2 76 -9 115 -33z
m-366 -15 c0 -5 -5 -7 -12 -3 -8 5 -9 0 -6 -14 4 -12 2 -22 -3 -22 -10 0 -12
33 -2 43 10 10 23 8 23 -4z m184 -42 c15 -24 -17 -56 -41 -41 -24 15 -26 29
-7 48 19 19 33 17 48 -7z"/>
<path d="M1906 2777 c-127 -72 -87 -268 59 -284 24 -3 51 0 61 6 17 11 17 11
-3 6 -29 -8 -62 8 -42 21 86 53 123 58 99 14 -18 -33 -2 -23 25 17 19 28 25
51 25 89 0 121 -120 191 -224 131z m43 -56 c15 -27 -9 -56 -37 -47 -24 8 -29
35 -10 54 17 17 36 15 47 -7z"/>
<path d="M1360 2687 c0 -7 15 -27 34 -45 21 -19 42 -53 52 -85 9 -28 19 -46
22 -39 5 17 -23 88 -55 134 -26 38 -53 56 -53 35z"/>
<path d="M3441 2671 c-24 -25 -40 -57 -72 -139 -6 -15 -15 -22 -24 -18 -12 4
-15 -5 -15 -47 0 -83 -12 -157 -23 -150 -6 3 -7 1 -3 -5 4 -7 13 -12 21 -12
14 0 20 20 31 105 14 116 66 238 107 251 9 3 17 14 17 25 0 26 -7 24 -39 -10z"/>
<path d="M3310 2590 c0 -5 5 -10 10 -10 6 0 10 5 10 10 0 6 -4 10 -10 10 -5 0
-10 -4 -10 -10z"/>
<path d="M3317 2550 c3 -11 9 -20 14 -20 5 0 9 9 9 20 0 11 -6 20 -14 20 -9 0
-12 -7 -9 -20z"/>
<path d="M1173 1440 c-18 -11 -46 -39 -63 -62 -61 -83 -155 -304 -175 -408 -3
-19 -12 -65 -19 -102 l-14 -68 1499 0 1499 0 -6 43 c-15 105 -66 281 -110 382
-49 112 -85 160 -143 189 l-31 17 0 -33 c0 -57 -20 -441 -26 -486 -5 -38 -10
-45 -47 -64 l-42 -21 -1089 7 -1089 8 -31 21 c-17 12 -33 23 -35 25 -3 1 -8
73 -12 160 -13 285 -22 412 -28 412 -3 0 -20 -9 -38 -20z"/>
</g>
</svg>
